<?xml version="1.0" encoding="utf-8"?>
<!-- Generator: Adobe Illustrator 23.0.3, SVG Export Plug-In . SVG Version: 6.00 Build 0)  -->
<svg version="1.1" id="レイヤー_1" xmlns="http://www.w3.org/2000/svg" xmlns:xlink="http://www.w3.org/1999/xlink" x="0px"
	 y="0px" viewBox="0 0 100 100" style="enable-background:new 0 0 100 100;" xml:space="preserve">
<path style="fill:none;stroke:#FFFFFF;stroke-width:2;" d="M97,81.89l-4.24-9.11c0,0,3.08-12.26-2.98-25.27
	c-6.06-13.01-5.78-12.4-10.28-22.07c-3.45-7.41-14.2-4.38-10.65,3.24c0.86,1.86,2.32,4.99,2.32,4.99s-1.33-2.86-4.25-9.13
	c-3.24-6.96-13.18-2.53-10.12,4.04c2.71,5.83,3.46,7.41,3.46,7.41s-3.52-7.55-5.32-11.43c-3.33-7.14-13.98-2.58-10.61,4.66
	c2.32,4.97,4.39,9.44,4.39,9.44L33.8,6.63c0,0-2.61-6.6-8.14-4.02c-5.3,2.47-1.87,8.85-1.87,8.85S46.82,60.92,44.7,56.36
	c-2.12-4.56-9.7-13.67-15.08-15.4c-4.14-1.33-8.85,0.55-8.97,2.26c-0.11,1.71,4.29,5,7.52,9.15c5.25,6.77,7.75,10.87,10.92,17.68
	c7.58,16.27,23.03,16.99,23.03,16.99l4.24,9.11L97,81.89z"/>
<g>
	<g>
		<line style="fill:none;stroke:#FFFFFF;stroke-width:2;" x1="8" y1="13.94" x2="8" y2="64.99"/>
		<g>
			<polygon style="fill:#FFFFFF;" points="0.59,19.56 8,16.41 15.41,19.56 8,2 			"/>
		</g>
	</g>
</g>
</svg>
